<?xml version="1.0" standalone="no"?>
<!DOCTYPE svg PUBLIC "-//W3C//DTD SVG 20010904//EN"
 "http://www.w3.org/TR/2001/REC-SVG-20010904/DTD/svg10.dtd">
<svg version="1.0" xmlns="http://www.w3.org/2000/svg"
 width="586.000000pt" height="586.000000pt" viewBox="0 0 586.000000 586.000000"
 preserveAspectRatio="xMidYMid meet">
<metadata>
Created by potrace 1.11, written by Peter Selinger 2001-2013
</metadata>
<g transform="translate(0.000000,586.000000) scale(0.100000,-0.100000)"
fill="#000000" stroke="none">
<path d="M0 2930 l0 -2930 2930 0 2930 0 0 2930 0 2930 -2930 0 -2930 0 0
-2930z m5393 2780 c135 -42 255 -153 309 -287 l23 -58 3 -2400 c2 -1749 0
-2416 -8 -2459 -34 -175 -158 -314 -328 -366 -63 -20 -98 -20 -2462 -20 -2379
0 -2398 0 -2463 20 -135 42 -255 153 -309 287 l-23 58 -3 2400 c-2 1755 0
2416 8 2460 34 176 169 323 341 369 46 13 389 15 2450 15 2379 1 2397 1 2462
-19z"/>
<path d="M493 5645 c-106 -32 -185 -104 -237 -214 l-31 -66 0 -2440 c0 -2275
1 -2443 17 -2477 9 -21 23 -38 31 -38 29 0 227 227 355 406 130 183 306 502
386 701 64 160 152 434 251 784 131 464 152 532 206 668 193 485 509 954 908
1351 411 408 758 584 1151 583 373 -2 773 -200 1032 -512 462 -557 511 -1118
145 -1655 -92 -134 -384 -435 -613 -632 -471 -405 -1088 -717 -1659 -839 -569
-122 -1207 -370 -1570 -609 -227 -150 -459 -350 -453 -391 2 -13 20 -26 53
-40 50 -20 67 -20 2088 -23 2015 -2 2037 -2 2037 17 0 11 -40 219 -90 462 -49
243 -90 448 -90 456 0 56 50 -47 226 -460 l201 -472 232 -3 c185 -2 233 0 237
11 2 7 -178 319 -401 692 -223 374 -405 686 -405 693 0 7 7 12 15 10 9 -2 257
-235 551 -518 295 -283 544 -516 555 -518 19 -3 19 5 17 293 l-3 297 -329 202
c-181 111 -331 207 -334 214 -2 7 5 12 15 12 10 0 153 -45 318 -100 165 -55
308 -100 317 -100 18 0 18 85 16 1978 l-3 1977 -23 56 c-34 86 -79 145 -140
189 -105 76 112 70 -2546 69 -1948 0 -2399 -3 -2433 -14z m733 -409 c85 -22
170 -74 233 -142 144 -154 175 -348 84 -534 -93 -190 -304 -304 -504 -270
-148 25 -292 131 -356 261 -39 79 -52 135 -53 220 -1 303 306 542 596 465z"/>
<path d="M1315 4815 c-14 -13 -25 -36 -25 -50 0 -33 42 -75 75 -75 33 0 75 42
75 75 0 33 -42 75 -75 75 -14 0 -37 -11 -50 -25z"/>
<path d="M1115 4605 c-14 -13 -25 -36 -25 -50 0 -33 42 -75 75 -75 33 0 75 42
75 75 0 33 -42 75 -75 75 -14 0 -37 -11 -50 -25z"/>
<path d="M3365 4800 c-249 -33 -501 -154 -747 -359 -405 -339 -696 -697 -907
-1118 -64 -129 -177 -413 -212 -536 -107 -372 -85 -718 62 -963 46 -76 152
-195 219 -245 70 -54 180 -105 278 -130 446 -115 1027 49 1657 466 328 217
611 472 825 743 178 225 248 360 291 567 23 109 25 322 4 437 -54 303 -275
671 -514 856 -295 228 -624 325 -956 282z m385 -89 c270 -61 531 -223 701
-436 354 -442 424 -887 206 -1309 -46 -89 -183 -271 -317 -421 -369 -413
-1004 -829 -1512 -990 -357 -113 -640 -110 -883 9 -290 142 -466 478 -441 836
15 198 55 356 157 613 220 555 599 1053 1087 1430 197 152 434 258 642 287 90
12 259 4 360 -19z"/>
<path d="M2570 3120 l0 -750 745 372 c410 205 745 375 745 378 0 3 -335 173
-745 378 l-745 372 0 -750z"/>
<path d="M1313 2012 c-7 -4 -29 -57 -49 -117 -109 -333 -307 -763 -451 -982
-28 -42 -34 -60 -31 -95 l3 -43 55 1 c48 0 64 6 127 47 173 113 527 269 855
378 98 32 187 63 197 69 44 23 33 95 -16 106 -111 24 -254 112 -368 228 -95
95 -147 171 -193 281 -52 126 -54 130 -87 133 -17 1 -36 -1 -42 -6z"/>
</g>
</svg>
