<?xml version="1.0" standalone="no"?>
<!DOCTYPE svg PUBLIC "-//W3C//DTD SVG 20010904//EN"
 "http://www.w3.org/TR/2001/REC-SVG-20010904/DTD/svg10.dtd">
<svg version="1.0" xmlns="http://www.w3.org/2000/svg"
 width="512.000000pt" height="512.000000pt" viewBox="0 0 512.000000 512.000000"
 preserveAspectRatio="xMidYMid meet">
<metadata>
Created by potrace 1.14, written by Peter Selinger 2001-2017
</metadata>
<g transform="translate(0.000000,512.000000) scale(0.100000,-0.100000)"
fill="#000000" stroke="none">
<path d="M2970 5114 c-72 -27 -140 -80 -305 -234 -88 -83 -205 -212 -205 -226
0 -6 6 -17 14 -23 8 -7 18 -27 22 -44 3 -18 9 -36 11 -41 8 -12 23 15 23 42 0
25 15 30 24 6 5 -13 13 -10 46 16 34 27 40 37 41 73 2 30 3 34 6 15 2 -16 7
-28 10 -28 6 0 65 62 99 102 6 7 32 32 58 56 25 24 46 47 46 53 0 5 7 9 15 9
8 0 20 9 27 20 7 11 18 20 23 20 6 0 40 20 75 45 47 33 73 45 100 45 34 0 37
-3 53 -47 9 -27 17 -70 17 -96 0 -61 -20 -189 -31 -201 -5 -6 -9 -21 -9 -35 0
-14 -9 -44 -20 -68 -11 -24 -29 -63 -40 -86 -19 -41 -19 -46 -5 -82 9 -20 14
-40 11 -42 -3 -3 -10 7 -16 22 -8 22 -13 25 -25 15 -23 -19 -30 -72 -11 -85
20 -15 21 -59 1 -75 -8 -7 -15 -9 -15 -6 0 4 -9 2 -20 -4 -11 -6 -20 -20 -20
-30 0 -11 -4 -20 -10 -20 -5 0 -12 -11 -16 -25 -3 -14 -10 -25 -15 -25 -4 0
-23 -13 -41 -29 -18 -15 -42 -31 -53 -35 -19 -7 -156 -162 -178 -202 -13 -23
-80 -96 -126 -138 -19 -17 -82 -75 -139 -129 -97 -90 -147 -129 -292 -224 -30
-20 -60 -42 -66 -48 -14 -13 -74 -38 -134 -56 -25 -7 -47 -16 -50 -19 -18 -20
-97 -70 -112 -70 -10 0 -18 -4 -18 -9 0 -8 -74 -61 -85 -61 -15 0 -2 35 23 59
15 15 27 32 27 37 0 18 49 94 61 94 7 0 18 -16 24 -35 6 -19 15 -35 19 -35 16
0 19 13 8 31 -13 21 -2 38 15 21 21 -21 25 -13 31 64 3 42 10 81 16 87 6 6 11
20 11 31 0 12 9 36 20 54 11 18 20 41 20 51 0 10 7 24 15 31 8 7 15 27 15 46
0 18 5 36 10 39 6 4 9 3 8 -2 -2 -4 2 -9 7 -10 6 -2 13 8 16 21 4 13 17 37 29
54 19 26 21 34 10 46 -7 9 -9 23 -5 33 4 10 8 29 9 42 1 32 26 40 26 9 1 -22
3 -21 30 12 17 19 30 40 30 47 0 7 6 13 14 13 17 0 56 63 56 90 0 10 6 25 13
32 44 48 55 75 50 121 -4 37 -2 48 10 53 27 10 39 -5 22 -29 -17 -24 -20 -47
-5 -47 19 0 34 46 35 104 0 36 5 61 12 63 17 6 27 -35 12 -53 -6 -8 -9 -17 -5
-21 13 -13 34 33 38 84 5 60 15 76 29 50 16 -28 29 -10 29 39 0 46 12 57 29
27 16 -27 32 3 25 46 -5 23 -2 36 7 42 11 6 11 11 2 20 -17 17 -43 -6 -43 -38
0 -23 -1 -23 -22 -9 -12 9 -28 16 -35 16 -13 0 -114 -119 -178 -211 -72 -103
-144 -203 -170 -239 -14 -18 -28 -45 -31 -60 -3 -14 -14 -41 -25 -60 -11 -19
-28 -51 -37 -71 -9 -20 -25 -40 -36 -45 -10 -5 -92 -130 -181 -279 -90 -148
-174 -282 -187 -297 -14 -15 -23 -30 -20 -32 7 -7 -109 -191 -194 -308 -94
-128 -143 -180 -164 -172 -17 7 -1089 124 -1137 124 -20 0 -23 -5 -23 -38 l0
-38 223 -21 c122 -12 372 -36 555 -54 l332 -32 27 24 27 24 -19 -30 c-28 -45
-146 -185 -155 -185 -5 0 -23 -20 -41 -45 -17 -24 -36 -42 -40 -39 -10 6 -67
-22 -94 -47 -12 -10 -31 -20 -43 -22 -12 -2 -24 -6 -27 -9 -3 -3 -23 -2 -43 3
-22 5 -41 4 -46 -1 -14 -14 -26 -12 -26 5 0 9 -6 13 -17 9 -10 -2 -3 3 15 12
39 22 41 34 4 34 -35 0 -52 -16 -52 -51 0 -14 -10 -38 -21 -53 -18 -23 -26
-26 -53 -20 -17 3 -35 10 -40 14 -5 5 -14 6 -21 4 -7 -3 -16 -1 -20 5 -3 6
-17 11 -30 11 -18 0 -31 -11 -49 -42 -33 -56 -56 -69 -119 -69 -63 0 -137 -21
-176 -49 -16 -11 -34 -20 -40 -20 -8 0 -11 -65 -11 -214 l0 -214 27 -10 c41
-16 98 -29 188 -43 44 -6 97 -21 119 -31 29 -15 50 -18 85 -14 97 14 350 25
431 19 77 -5 88 -8 117 -36 30 -28 39 -31 135 -38 57 -5 120 -15 140 -23 20
-9 77 -24 127 -35 50 -11 130 -39 179 -62 48 -23 104 -45 124 -50 21 -5 85
-43 143 -84 58 -41 114 -75 125 -75 10 0 29 -10 41 -22 50 -53 51 -57 50 -240
-1 -134 3 -198 19 -283 16 -92 20 -154 20 -375 0 -146 3 -282 6 -302 l7 -38
1039 0 c980 0 1039 1 1046 18 13 32 7 137 -12 200 -15 47 -17 68 -9 85 6 13
18 70 28 128 9 57 27 138 40 179 13 41 26 90 30 108 14 67 84 71 166 9 73 -55
134 -110 141 -128 3 -8 30 -23 59 -33 30 -10 74 -30 99 -45 53 -31 89 -51 150
-85 51 -27 123 -117 189 -234 77 -138 71 -150 71 153 0 269 0 270 -23 297 -22
25 -25 40 -30 158 -5 125 -7 132 -39 184 -23 38 -41 56 -60 60 -17 3 -41 25
-67 59 -23 30 -41 56 -41 60 0 11 -107 194 -153 261 -26 37 -47 72 -47 76 0 8
-60 48 -90 61 -8 3 -29 26 -46 50 -27 39 -36 44 -70 45 -34 0 -48 9 -104 62
-36 34 -76 65 -90 68 -14 3 -30 8 -36 12 -22 14 -96 68 -137 99 -23 18 -73 54
-110 79 -68 46 -69 47 -62 83 4 20 8 36 8 36 1 0 11 5 22 11 54 30 3 64 -123
81 -46 6 -50 20 -11 40 13 7 26 22 29 35 9 38 50 40 85 4 l30 -31 9 44 c7 32
6 46 -2 49 -6 2 -9 9 -7 15 2 7 6 24 9 40 8 36 26 35 26 -2 0 -38 9 -61 25
-61 22 0 75 31 75 44 0 7 12 19 28 26 47 24 53 31 41 46 -6 8 -20 14 -30 14
-21 0 -24 11 -9 26 6 6 1 19 -16 37 l-25 27 24 0 c43 0 56 27 53 110 -3 70 8
120 25 120 4 0 5 9 2 20 -3 11 2 31 11 44 28 43 13 139 -31 203 -44 64 -48 68
-148 137 -115 79 -226 135 -271 137 -133 6 -264 -20 -390 -78 -68 -31 -166
-135 -158 -167 3 -14 -4 -34 -20 -56 -60 -82 -84 -179 -50 -205 18 -14 18 -14
-2 -15 -12 0 -32 -9 -45 -19 -23 -18 -24 -25 -21 -113 2 -51 8 -97 12 -102 6
-6 19 -5 35 2 22 10 26 9 31 -6 3 -9 10 -25 15 -34 8 -16 4 -18 -26 -18 -22 0
-35 -5 -35 -13 0 -21 44 -57 69 -57 20 0 22 -3 16 -27 -3 -16 -13 -41 -20 -58
-8 -16 -19 -51 -26 -77 -8 -36 -16 -47 -35 -51 -13 -2 -25 1 -27 7 -2 6 -11
-4 -21 -21 -16 -33 -36 -44 -36 -21 0 6 12 49 27 95 15 45 24 85 21 88 -13 13
-89 -37 -114 -75 -15 -22 -29 -41 -33 -41 -3 -1 -24 -3 -46 -4 -22 -2 -118
-11 -214 -19 -96 -9 -176 -14 -178 -12 -3 3 -15 1 -27 -4 -30 -11 -254 6 -271
20 -9 7 -26 9 -41 6 -17 -5 -32 -2 -43 7 -28 25 -206 41 -374 34 -85 -4 -162
-9 -171 -13 -10 -4 -16 -17 -16 -35 l0 -29 -89 0 -90 0 -7 -46 c-5 -36 -12
-47 -32 -55 -39 -15 -46 -7 -43 53 l2 55 -53 6 c-29 4 -70 7 -91 7 -30 0 -40
4 -44 20 -6 24 -13 25 -39 5 -18 -13 -64 -21 -64 -10 0 2 26 50 57 106 39 69
88 136 151 206 126 140 119 136 233 123 52 -6 144 -14 204 -20 61 -5 227 -20
370 -35 143 -14 287 -28 320 -30 33 -2 101 -8 150 -14 131 -15 523 -51 557
-51 23 0 29 4 26 17 -2 14 -18 20 -63 25 -33 4 -98 12 -145 18 -47 5 -168 19
-270 30 -395 43 -467 51 -535 60 -38 5 -145 17 -238 25 -92 9 -220 22 -285 30
-64 8 -118 15 -119 15 -2 0 -3 4 -3 10 0 27 291 232 433 305 45 23 98 52 117
64 19 12 89 49 155 83 141 72 256 148 386 257 158 132 414 412 460 504 12 23
43 71 69 107 26 36 53 83 60 104 6 21 24 52 39 69 14 18 32 43 39 56 8 13 22
38 31 55 33 59 91 292 91 367 0 35 -18 19 -29 -25 -17 -69 -29 -64 -29 11 1
101 -19 255 -41 305 -24 56 -60 89 -97 88 -16 0 -42 2 -59 4 -16 3 -37 3 -45
0z m-370 -483 c0 -6 -4 -13 -10 -16 -5 -3 -10 1 -10 9 0 9 5 16 10 16 6 0 10
-4 10 -9z m623 -11 c3 -11 1 -20 -4 -20 -5 0 -9 9 -9 20 0 11 2 20 4 20 2 0 6
-9 9 -20z m-102 -133 c-13 -33 -36 -48 -26 -17 7 23 27 51 33 45 1 -1 -2 -14
-7 -28z m-851 -171 c0 -26 -15 -43 -24 -28 -7 12 4 52 15 52 5 0 9 -11 9 -24z
m-190 -390 c0 -3 -4 -8 -10 -11 -5 -3 -10 -1 -10 4 0 6 5 11 10 11 6 0 10 -2
10 -4z m1172 -1337 c-12 -32 -17 -37 -25 -24 -7 13 -12 14 -23 4 -17 -14 -19
0 -3 35 10 22 42 37 61 29 3 -2 -1 -21 -10 -44z m674 -238 c-15 -16 -15 -19
-1 -24 8 -4 15 -11 15 -16 0 -6 -14 -2 -30 7 l-30 17 21 18 c28 23 47 22 25
-2z m-3432 -105 c-21 -15 -30 -14 -19 3 3 6 14 11 23 11 13 0 13 -2 -4 -14z
m-137 -28 c-3 -8 -6 -5 -6 6 -1 11 2 17 5 13 3 -3 4 -12 1 -19z m-182 -92
c-10 -14 -22 -26 -27 -26 -10 0 -3 16 20 43 22 25 27 13 7 -17z m706 -57 c10
-19 9 -20 -13 -14 -29 9 -31 11 -23 24 10 17 23 13 36 -10z m118 -75 c3 -16 1
-17 -13 -5 -19 16 -21 34 -3 29 6 -3 14 -13 16 -24z m3000 -54 c11 -24 11 -24
-3 -6 -9 11 -16 24 -16 30 0 12 5 7 19 -24z m-1334 -534 c37 -16 48 -39 18
-35 -36 3 -37 -2 -4 -19 19 -9 36 -22 38 -29 6 -16 -45 -41 -98 -49 l-44 -7
25 20 c20 17 22 23 12 36 -20 24 -93 38 -136 26 -21 -6 -41 -8 -44 -4 -15 14
118 74 166 75 18 0 48 -7 67 -14z m-221 -171 c3 -9 0 -15 -9 -15 -16 0 -27 14
-18 24 10 10 21 7 27 -9z m49 0 c7 -16 -8 -29 -23 -20 -15 9 -12 35 4 35 8 0
16 -7 19 -15z m47 -5 c0 -5 -4 -10 -10 -10 -5 0 -10 5 -10 10 0 6 5 10 10 10
6 0 10 -4 10 -10z m34 -15 c-5 -13 -2 -14 18 -6 31 12 59 -2 41 -20 -9 -9 -15
-9 -27 0 -7 6 -20 10 -27 9 -7 -2 -15 5 -17 15 -2 9 1 17 7 17 6 0 8 -7 5 -15z
m109 -11 c9 -10 -4 -34 -19 -34 -8 0 -14 6 -14 13 0 22 19 35 33 21z"/>
<path d="M1685 5070 c3 -5 11 -10 16 -10 6 0 7 5 4 10 -3 6 -11 10 -16 10 -6
0 -7 -4 -4 -10z"/>
<path d="M1800 5010 c0 -5 5 -10 11 -10 5 0 7 5 4 10 -3 6 -8 10 -11 10 -2 0
-4 -4 -4 -10z"/>
<path d="M1836 4991 c8 -9 174 -107 274 -163 19 -11 49 -31 67 -44 35 -27 79
-35 53 -10 -8 7 -40 27 -70 43 -30 17 -89 50 -130 75 -145 86 -221 124 -194
99z"/>
<path d="M2150 4974 c0 -8 5 -12 10 -9 6 3 10 10 10 16 0 5 -4 9 -10 9 -5 0
-10 -7 -10 -16z"/>
<path d="M2290 4880 c0 -5 5 -10 10 -10 6 0 10 5 10 10 0 6 -4 10 -10 10 -5 0
-10 -4 -10 -10z"/>
<path d="M2420 4820 c0 -5 5 -10 11 -10 5 0 7 5 4 10 -3 6 -8 10 -11 10 -2 0
-4 -4 -4 -10z"/>
<path d="M2885 4610 c-3 -5 -1 -10 4 -10 6 0 11 5 11 10 0 6 -2 10 -4 10 -3 0
-8 -4 -11 -10z"/>
<path d="M2817 4593 c-10 -9 -9 -23 2 -23 5 0 11 7 15 15 5 15 -5 20 -17 8z"/>
<path d="M2910 4139 c0 -5 5 -7 10 -4 6 3 10 8 10 11 0 2 -4 4 -10 4 -5 0 -10
-5 -10 -11z"/>
<path d="M4538 3568 c9 -9 15 -9 24 0 9 9 7 12 -12 12 -19 0 -21 -3 -12 -12z"/>
<path d="M1450 3280 c8 -5 22 -9 30 -9 10 0 8 3 -5 9 -27 12 -43 12 -25 0z"/>
<path d="M4190 2430 c0 -11 6 -20 13 -20 6 0 52 -5 100 -10 138 -16 779 -80
799 -80 10 0 18 7 18 15 0 8 -6 15 -14 15 -7 0 -154 15 -327 34 -173 19 -366
40 -429 46 -63 6 -125 13 -137 16 -18 3 -23 0 -23 -16z"/>
<path d="M4011 2244 c0 -11 3 -14 6 -6 3 7 2 16 -1 19 -3 4 -6 -2 -5 -13z"/>
</g>
</svg>
